<svg width="40" height="33" viewBox="0 0 40 33" fill="none" xmlns="http://www.w3.org/2000/svg">
<path d="M26.1723 29.4961C25.7555 29.4961 25.3386 29.4344 24.9586 29.311C22.9236 28.6693 21.3667 26.3496 22.4823 22.5986C23.2546 20.0322 24.0514 17.8112 24.7502 15.8493C25.3999 14.0355 25.9639 12.4684 26.2581 11.2716C26.5646 10.05 26.4788 9.63051 26.4542 9.5318C26.442 9.51946 26.4297 9.51946 26.4052 9.50712C26.3439 9.48245 26.3071 9.47011 26.2703 9.45777C26.1355 9.5935 25.8168 9.98834 25.3019 11.1605C24.7379 12.4314 24.0637 14.2946 23.2178 16.6637C22.4455 18.8106 21.477 21.4881 20.2511 24.6592C19.3194 27.0653 17.8483 28.2375 16.7695 28.8051C15.3352 29.5577 13.6802 29.6811 12.2459 29.1629C10.0147 28.3485 8.17583 25.8438 9.37722 22.2532C9.96566 20.5257 10.9096 18.6132 11.9271 16.602C13.055 14.344 14.2319 11.9996 14.71 10.1611C15.2494 8.08816 14.6732 7.77969 14.4035 7.63162C14.0602 7.44654 13.8273 7.47121 13.5821 7.55759C12.1601 8.1005 10.5418 11.0988 9.83081 13.0607L6.55762 11.8515C6.58214 11.7898 7.10928 10.3338 8.0042 8.71744C9.32819 6.36072 10.787 4.86772 12.3439 4.26311C13.5821 3.7819 14.8816 3.88061 16.0707 4.52223C17.5541 5.33659 19.111 7.11339 18.0935 11.0248C17.5173 13.2335 16.2669 15.7382 15.0532 18.169C14.097 20.0692 13.2021 21.8706 12.6995 23.3636C12.2826 24.6099 12.5523 25.5229 13.4473 25.8438C14.3667 26.1769 16.083 25.8067 17.0147 23.376C18.2283 20.2419 19.1846 17.5767 19.9446 15.4544C22.09 9.50712 22.9726 7.05169 24.9218 6.18797C25.78 5.80547 26.7362 5.83015 27.7537 6.26201C28.9796 6.7679 30.3404 8.00178 29.8991 10.9508C29.6539 12.5548 28.9428 14.529 28.0479 17.0338C27.3614 18.9587 26.5768 21.1303 25.8413 23.5981C25.449 24.906 25.6206 25.8191 26.0129 25.9425C26.5768 26.1152 28.0357 25.4119 28.8203 22.9811L32.1425 24.067C30.9288 27.7933 28.3912 29.4961 26.1723 29.4961Z" fill="#1B1C1E"/>
<ellipse cx="9.00944" cy="10.5544" rx="0.612958" ry="0.616942" fill="white"/>
</svg>
